<?xml version="1.0" encoding="UTF-8"?><svg id="Layer_2" xmlns="http://www.w3.org/2000/svg" width="258" height="339" xmlns:xlink="http://www.w3.org/1999/xlink" viewBox="0 0 258 339"><defs><style>.cls-1,.cls-2,.cls-3,.cls-4,.cls-5{fill:#fff;}.cls-2{filter:url(#drop-shadow-4);}.cls-3{filter:url(#drop-shadow-3);}.cls-4{filter:url(#drop-shadow-2);}.cls-5{filter:url(#drop-shadow-1);}</style><filter id="drop-shadow-1" filterUnits="userSpaceOnUse"><feOffset dx="5" dy="5"/><feGaussianBlur result="blur" stdDeviation="5"/><feFlood flood-color="#000" flood-opacity=".5"/><feComposite in2="blur" operator="in"/><feComposite in="SourceGraphic"/></filter><filter id="drop-shadow-2" filterUnits="userSpaceOnUse"><feOffset dx="5" dy="5"/><feGaussianBlur result="blur-2" stdDeviation="5"/><feFlood flood-color="#000" flood-opacity=".5"/><feComposite in2="blur-2" operator="in"/><feComposite in="SourceGraphic"/></filter><filter id="drop-shadow-3" filterUnits="userSpaceOnUse"><feOffset dx="5" dy="5"/><feGaussianBlur result="blur-3" stdDeviation="5"/><feFlood flood-color="#000" flood-opacity=".5"/><feComposite in2="blur-3" operator="in"/><feComposite in="SourceGraphic"/></filter><filter id="drop-shadow-4" filterUnits="userSpaceOnUse"><feOffset dx="5" dy="5"/><feGaussianBlur result="blur-4" stdDeviation="5"/><feFlood flood-color="#000" flood-opacity=".5"/><feComposite in2="blur-4" operator="in"/><feComposite in="SourceGraphic"/></filter></defs><g id="Layer_1-2"><g><polyline class="cls-5" points="46.2 127.8 79.97 162.27 79.97 319 46.19 319"/><path class="cls-4" d="M223.98,222.22c-.84,1.66-1.72,3.3-2.63,4.91l-.06,.1c-1.28,2.23-2.63,4.41-4.05,6.53-19.91,29.7-54.27,48.97-100.83,48.97H10v-33.78H125.2c29.16,0,52.69-15.06,66.04-37.98l.16,.06,32.48,11.15,.1,.04Z"/><polygon class="cls-3" points="170.83 10 170.83 255.01 79.97 162.27 46.2 127.8 46.19 125.46 46.19 81.2 48.81 83.89 137.05 174.78 137.05 10 170.83 10"/><path class="cls-2" d="M198.23,73.23l-23.9,24.5c18.15,15.42,28.99,39.55,28.99,66.78,0,17.19-4.33,33.15-12.08,46.46l.16,.06,32.48,11.15,.1,.04c.65-1.29,1.28-2.6,1.89-3.92,.61-1.33,1.2-2.67,1.75-4.03,6.25-15.11,9.47-31.97,9.47-49.7599,0-36.81-13.2401-69.62-38.86-91.28Zm-81.82-26.94H10v33.77H125.2c19.28,0,36.09,6.59,49.13,17.67l23.9-24.5c-19.93-16.84-47.34-26.94-81.82-26.94Z"/><path class="cls-1" d="M227.62,214.27c-.55,1.36-1.14,2.7-1.75,4.03l-1.99,3.88-2.53,4.95-.06,.1c-1.28,2.23-2.63,4.41-4.05,6.53-7.98,10.14-6.63,3.7-11.12,1.4l-12.65-6.48c-4.86-2.49-6.78-8.45-4.29-13.31l2.22-4.34,5.36-10.46c2.49-4.86,8.45-6.78,13.31-4.29l12.65,6.48c4.6801,2.4,9.88-3.31,4.9,11.5099Z"/></g></g></svg>